<?xml version="1.0" encoding="utf-8"?>
<!-- Generator: Adobe Illustrator 24.1.2, SVG Export Plug-In . SVG Version: 6.00 Build 0)  -->
<svg version="1.1" id="Layer_1" xmlns="http://www.w3.org/2000/svg" xmlns:xlink="http://www.w3.org/1999/xlink" x="0px" y="0px"
	 viewBox="0 0 512 512" style="enable-background:new 0 0 512 512;" xml:space="preserve">
<style type="text/css">
	.st0{display:none;fill:#FFD15D;}
	.st1{display:none;fill:#F9B54C;}
	.st2{fill:#C1321F;}
	.st3{fill:#A82116;}
	.st4{fill:#FC6F58;}
	.st5{fill:#F1543F;}
	.st6{fill:#31BAFD;}
	.st7{fill:#2B9ED8;}
	.st8{fill:#324A5E;}
	.st9{fill:#2B3B4E;}
</style>
<circle class="st0" cx="256" cy="256" r="256"/>
<path class="st1" d="M508.8,296.7L278.9,66.4l-32.1,28.7l-14.9,15.5l56.9,56.4l-104.3,31.7l85.7,85.7l-128.5,6.9L100,392.2
	L216.8,509c12.8,2,25.9,3,39.2,3C383.5,512,489.3,418.8,508.8,296.7z"/>
<path class="st2" d="M357.7,277.8h-93.9V162h-15.5v115.8h-94c-16.3,0-29.6,13.3-29.6,29.6V335h15.5v-27.6c0-7.8,6.3-14.1,14.1-14.1
	h93.9V335h15.5v-41.7h93.9c7.8,0,14.1,6.3,14.1,14.1V335h15.5v-27.6C387.3,291.1,374,277.8,357.7,277.8z"/>
<path class="st3" d="M357.7,277.8h-93.9V162h-8.3v173h8.3v-41.7h93.9c7.8,0,14.1,6.3,14.1,14.1V335h15.5v-27.6
	C387.3,291.1,374,277.8,357.7,277.8z"/>
<g>
	<rect x="100" y="327.2" class="st4" width="64.9" height="64.9"/>
	<rect x="223.5" y="327.2" class="st4" width="64.9" height="64.9"/>
</g>
<g>
	<rect x="255.4" y="327.2" class="st5" width="33" height="64.9"/>
	<rect x="347.1" y="327.2" class="st5" width="64.9" height="64.9"/>
</g>
<ellipse transform="matrix(0.1735 -0.9848 0.9848 0.1735 123.7056 325.8665)" class="st6" cx="256" cy="89.2" rx="32.3" ry="32.3"/>
<path class="st7" d="M256,56.9c-0.2,0-0.4,0-0.6,0v64.6c0.2,0,0.4,0,0.6,0c17.9,0,32.3-14.5,32.3-32.3
	C288.3,71.4,273.9,56.9,256,56.9z"/>
<path class="st8" d="M184.5,198.7c0-39.5,32-71.5,71.5-71.5s71.5,32,71.5,71.5H184.5z"/>
<path class="st9" d="M256,127.2c-0.2,0-0.4,0-0.6,0v71.5h72.1C327.5,159.2,295.5,127.2,256,127.2z"/>
</svg>
