<?xml version="1.0" encoding="iso-8859-1"?>
<!-- Generator: Adobe Illustrator 19.0.0, SVG Export Plug-In . SVG Version: 6.00 Build 0)  -->
<svg version="1.1" id="Layer_1" xmlns="http://www.w3.org/2000/svg" xmlns:xlink="http://www.w3.org/1999/xlink" x="0px" y="0px"
	 viewBox="0 0 512 512" style="enable-background:new 0 0 512 512;" xml:space="preserve">
<circle style="fill:#FFD15D;" cx="256" cy="256" r="256"/>
<path style="fill:#F9B54C;" d="M508.763,296.72L278.869,66.362l-32.063,28.741l-14.941,15.515l56.925,56.351l-104.333,31.744
	l85.733,85.732l-128.543,6.896L99.987,392.187l116.831,116.831c12.774,1.962,25.859,2.982,39.181,2.982
	C383.524,512,489.255,418.75,508.763,296.72z"/>
<path style="fill:#C1321F;" d="M357.709,277.835h-93.949v-115.79h-15.515v115.79h-93.951c-16.32,0-29.596,13.276-29.596,29.596
	v27.581h15.515v-27.581c0-7.764,6.318-14.081,14.081-14.081h93.949v41.662h15.515V293.35h93.949c7.764,0,14.081,6.316,14.081,14.081
	v27.581h15.515v-27.581C387.305,291.111,374.027,277.835,357.709,277.835z"/>
<path style="fill:#A82116;" d="M357.709,277.835h-93.949v-115.79h-8.332v172.966h8.332V293.35h93.949
	c7.764,0,14.081,6.316,14.081,14.081v27.581h15.515v-27.581C387.305,291.111,374.027,277.835,357.709,277.835z"/>
<g>
	<rect x="99.987" y="327.249" style="fill:#FC6F58;" width="64.934" height="64.933"/>
	<rect x="223.539" y="327.249" style="fill:#FC6F58;" width="64.934" height="64.933"/>
</g>
<g>
	<rect x="255.431" y="327.249" style="fill:#F1543F;" width="33.047" height="64.933"/>
	<rect x="347.074" y="327.249" style="fill:#F1543F;" width="64.934" height="64.933"/>
</g>
<circle style="fill:#31BAFD;" cx="256" cy="89.231" r="32.342"/>
<path style="fill:#2B9ED8;" d="M256.002,56.889c-0.193,0-0.381,0.026-0.574,0.029v64.626c0.193,0.003,0.381,0.029,0.574,0.029
	c17.861,0,32.342-14.479,32.342-32.34C288.342,71.368,273.863,56.889,256.002,56.889z"/>
<path style="fill:#324A5E;" d="M184.46,198.711c0-39.512,32.03-71.542,71.542-71.542s71.542,32.03,71.542,71.542H184.46z"/>
<path style="fill:#2B3B4E;" d="M256.002,127.169c-0.193,0-0.383,0.014-0.574,0.016v71.527h72.116
	C327.544,159.199,295.512,127.169,256.002,127.169z"/>
<g>
</g>
<g>
</g>
<g>
</g>
<g>
</g>
<g>
</g>
<g>
</g>
<g>
</g>
<g>
</g>
<g>
</g>
<g>
</g>
<g>
</g>
<g>
</g>
<g>
</g>
<g>
</g>
<g>
</g>
</svg>
