<?xml version="1.0" encoding="utf-8"?>
<!-- Generator: Adobe Illustrator 24.1.2, SVG Export Plug-In . SVG Version: 6.00 Build 0)  -->
<svg version="1.1" xmlns="http://www.w3.org/2000/svg" xmlns:xlink="http://www.w3.org/1999/xlink" x="0px" y="0px"
	 viewBox="0 0 1252.7 513.67" style="enable-background:new 0 0 1252.7 513.67;" xml:space="preserve">
<style type="text/css">
	.st0{fill:#81C9C3;}
	.st1{fill:#EE6F4A;}
	.st2{display:none;}
	.st3{fill:#FFFFFF;}
	.st4{display:inline;fill:#81C9C3;}
	.st5{display:inline;fill:#EE6F4A;}
</style>
<g id="Шар_1">
	<path class="st0" d="M2.9,332.15c-1.87,4.79-2.9,9.99-2.9,15.43c0,23.48,19.04,42.52,42.52,42.52c18.52,0,33.96-11.95,40.1-28.37"
		/>
	<path class="st0" d="M98.56,76.29c5.83-16.52,21.58-28.37,40.1-28.37c23.48,0,42.52,19.04,42.52,42.52c0,5.45-1.03,10.65-2.9,15.43
		"/>
	
		<rect x="48.05" y="82.33" transform="matrix(0.9367 0.3502 -0.3502 0.9367 82.4561 -17.8446)" class="st0" width="85.03" height="273.49"/>
	<path class="st1" d="M269.43,232.98c1.87-4.79,2.9-9.99,2.9-15.43c0-23.48-19.04-42.52-42.52-42.52
		c-18.4,0-34.05,11.69-39.98,28.04l-0.01,0l-48.27,129.09c-1.87,4.79-2.9,9.99-2.9,15.43c0,23.48,19.04,42.52,42.52,42.52
		c18.45,0,33.84-11.86,40.02-28.17l0,0l0.07-0.19c0,0,0,0,0,0l0,0L269.43,232.98L269.43,232.98z"/>
</g>
<g id="Шар_2" class="st2">
</g>
<g id="text">
	<g>
		<path class="st3" d="M463.83,299.03H316.65l-33.4,91.07h-28.72L377.22,65.91h26.05l122.68,324.19h-28.5L463.83,299.03z
			 M325.11,275.87h130.03L390.13,99.3L325.11,275.87z"/>
		<path class="st3" d="M604.99,87.5v61.68h49.88V171h-49.88v160.71c0,13.38,2.41,23.33,7.24,29.87c4.82,6.54,12.88,9.81,24.16,9.81
			c4.45,0,11.65-0.74,21.6-2.23l1.11,21.63c-6.98,2.5-16.48,3.75-28.5,3.75c-18.26,0-31.54-5.31-39.86-15.92
			c-8.31-10.61-12.47-26.24-12.47-46.87V171h-44.31v-21.82h44.31V87.5H604.99z"/>
		<path class="st3" d="M739.92,390.09H713.2v-342h26.72V390.09z"/>
		<path class="st3" d="M964.36,390.09c-2.67-7.57-4.38-18.78-5.12-33.62c-9.35,12.17-21.26,21.56-35.74,28.17s-29.8,9.91-45.98,9.91
			c-23.16,0-41.9-6.46-56.22-19.37c-14.33-12.91-21.49-29.24-21.49-48.98c0-23.45,9.76-42.01,29.28-55.66
			c19.52-13.66,46.72-20.48,81.6-20.48h48.32v-27.39c0-17.22-5.31-30.76-15.92-40.63c-10.61-9.87-26.09-14.81-46.42-14.81
			c-18.56,0-33.92,4.75-46.09,14.25c-12.17,9.5-18.26,20.93-18.26,34.29l-26.72-0.22c0-19.15,8.91-35.74,26.72-49.76
			s39.71-21.04,65.68-21.04c26.87,0,48.06,6.72,63.57,20.15c15.51,13.44,23.49,32.17,23.94,56.22v114c0,23.31,2.45,40.75,7.35,52.32
			v2.67H964.36z M880.64,370.95c17.81,0,33.73-4.3,47.76-12.91c14.03-8.61,24.23-20.11,30.62-34.51v-52.99h-47.65
			c-26.57,0.3-47.35,5.16-62.34,14.58c-14.99,9.43-22.49,22.38-22.49,38.85c0,13.51,5.01,24.71,15.03,33.62
			S864.61,370.95,880.64,370.95z"/>
		<path class="st3" d="M1200.82,328.86c0-13.21-5.31-23.82-15.92-31.84c-10.61-8.02-26.61-14.29-47.98-18.81
			c-21.38-4.53-37.96-9.72-49.76-15.59c-11.8-5.86-20.56-13.03-26.27-21.49c-5.72-8.46-8.57-18.7-8.57-30.73
			c0-19,7.94-34.7,23.82-47.09c15.88-12.39,36.22-18.59,61.01-18.59c26.87,0,48.43,6.65,64.68,19.93
			c16.25,13.29,24.38,30.62,24.38,51.99h-26.72c0-14.1-5.9-25.83-17.7-35.18s-26.68-14.03-44.64-14.03
			c-17.52,0-31.58,3.9-42.19,11.69c-10.61,7.79-15.92,17.92-15.92,30.39c0,12.02,4.42,21.34,13.25,27.94
			c8.83,6.61,24.94,12.66,48.32,18.15c23.38,5.49,40.89,11.36,52.55,17.59c11.65,6.23,20.3,13.73,25.94,22.49
			c5.64,8.76,8.46,19.37,8.46,31.84c0,20.34-8.2,36.59-24.6,48.76c-16.4,12.17-37.82,18.26-64.24,18.26
			c-28.05,0-50.8-6.79-68.24-20.37c-17.44-13.58-26.16-30.76-26.16-51.54h26.72c1.04,15.59,7.61,27.72,19.71,36.4
			c12.1,8.68,28.09,13.03,47.98,13.03c18.55,0,33.54-4.08,44.98-12.25C1195.11,351.65,1200.82,341.33,1200.82,328.86z"/>
	</g>
</g>
<g id="Шар_4" class="st2">
	<path class="st4" d="M2.9,332.06c-1.87,4.79-2.9,9.99-2.9,15.43c0,23.48,19.04,42.52,42.52,42.52c18.52,0,33.96-11.95,40.1-28.37"
		/>
	<path class="st4" d="M98.56,76.2c5.83-16.52,21.58-28.37,40.1-28.37c23.48,0,42.52,19.04,42.52,42.52c0,5.45-1.03,10.65-2.9,15.43"
		/>
	
		<rect x="48.11" y="82.24" transform="matrix(0.9367 0.3502 -0.3502 0.9367 82.3722 -17.8804)" class="st4" width="85.03" height="273.16"/>
	<path class="st5" d="M141.56,332.06c-1.87,4.79-2.9,9.99-2.9,15.43c0,23.48,19.04,42.52,42.52,42.52
		c18.52,0,33.96-11.95,40.1-28.37"/>
	<path class="st5" d="M189.71,203.3c5.83-16.52,21.58-28.37,40.1-28.37c23.48,0,42.52,19.04,42.52,42.52
		c0,5.45-1.03,10.65-2.9,15.43"/>
	
		<rect x="163" y="213.49" transform="matrix(0.9367 0.3502 -0.3502 0.9367 111.9136 -54.0893)" class="st5" width="85.03" height="137.82"/>
</g>
</svg>
