<?xml version="1.0" encoding="utf-8"?>
<!-- Generator: Adobe Illustrator 24.1.2, SVG Export Plug-In . SVG Version: 6.00 Build 0)  -->
<svg version="1.1" id="Шар_1" xmlns="http://www.w3.org/2000/svg" xmlns:xlink="http://www.w3.org/1999/xlink" x="0px" y="0px"
	 viewBox="0 0 272.33 342.18" style="enable-background:new 0 0 272.33 342.18;" xml:space="preserve">
<style type="text/css">
	.st0{fill:#007A6B;}
	.st1{fill:#E64A1A;}
</style>
<path class="st0" d="M181.18,42.52C181.18,19.04,162.14,0,138.66,0c-18.45,0-34.14,11.75-40.03,28.17l0,0L2.9,284.23l0,0
	c0,0,0,0,0,0l-0.07,0.19l0,0C1.01,289.16,0,294.29,0,299.66c0,23.48,19.04,42.52,42.52,42.52c18.37,0,33.71-11.77,39.94-27.98
	l0.01,0l95.81-256.25l-0.01,0l0.01,0C180.15,53.17,181.18,47.97,181.18,42.52z"/>
<path class="st1" d="M269.43,185.05c1.87-4.79,2.9-9.99,2.9-15.43c0-23.48-19.04-42.52-42.52-42.52c-18.4,0-34.05,11.69-39.98,28.04
	l-0.01,0l-48.27,129.09c-1.87,4.79-2.9,9.99-2.9,15.43c0,23.48,19.04,42.52,42.52,42.52c18.45,0,33.84-11.86,40.02-28.17l0,0
	l0.07-0.19c0,0,0,0,0,0l0,0L269.43,185.05L269.43,185.05z"/>
<g>
</g>
<g>
</g>
<g>
</g>
<g>
</g>
<g>
</g>
<g>
</g>
</svg>
