<?xml version="1.0" encoding="iso-8859-1"?>
<!-- Generator: Adobe Illustrator 19.0.0, SVG Export Plug-In . SVG Version: 6.00 Build 0)  -->
<svg version="1.1" id="Layer_1" xmlns="http://www.w3.org/2000/svg" xmlns:xlink="http://www.w3.org/1999/xlink" x="0px" y="0px"
	 viewBox="0 0 512 512" style="enable-background:new 0 0 512 512;" xml:space="preserve">
<circle style="fill:#CFDBE6;" cx="256" cy="256" r="256"/>
<path style="fill:#B8C9D9;" d="M511.805,265.523L390.299,144.015L252.552,259.448L112.34,375.811l136.068,136.068
	C250.93,511.953,253.459,512,256,512C394.195,512,506.794,402.494,511.805,265.523z"/>
<rect x="266.912" y="168.46" style="fill:#632F00;" width="147.825" height="73.316"/>
<rect x="112.347" y="168.46" style="fill:#804000;" width="154.583" height="73.316"/>
<rect x="145.911" y="144.015" style="fill:#2C9984;" width="244.381" height="122.192"/>
<rect x="266.912" y="144.015" style="fill:#207A69;" width="123.38" height="122.192"/>
<rect x="154.807" y="151.79" style="fill:#90DFAA;" width="226.607" height="106.641"/>
<rect x="266.912" y="151.79" style="fill:#74C48A;" width="114.502" height="106.641"/>
<ellipse style="fill:#2C9984;" cx="268.102" cy="205.11" rx="24.438" ry="36.657"/>
<path style="fill:#207A69;" d="M268.105,168.455c-0.4,0-0.791,0.06-1.186,0.09v73.137c0.396,0.029,0.786,0.09,1.186,0.09
	c13.496,0,24.438-16.413,24.438-36.657C292.543,184.866,281.603,168.455,268.105,168.455z"/>
<rect x="112.347" y="204.748" style="fill:#935635;" width="302.39" height="171.063"/>
<rect x="266.912" y="204.748" style="fill:#804000;" width="147.825" height="171.063"/>
<rect x="284.444" y="312.889" style="fill:#57442F;" width="113.778" height="28.444"/>
<g>
</g>
<g>
</g>
<g>
</g>
<g>
</g>
<g>
</g>
<g>
</g>
<g>
</g>
<g>
</g>
<g>
</g>
<g>
</g>
<g>
</g>
<g>
</g>
<g>
</g>
<g>
</g>
<g>
</g>
</svg>
