<?xml version="1.0" encoding="iso-8859-1"?>
<!-- Generator: Adobe Illustrator 19.0.0, SVG Export Plug-In . SVG Version: 6.00 Build 0)  -->
<svg version="1.1" id="Layer_1" xmlns="http://www.w3.org/2000/svg" xmlns:xlink="http://www.w3.org/1999/xlink" x="0px" y="0px"
	 viewBox="0 0 512 512" style="enable-background:new 0 0 512 512;" xml:space="preserve">
<circle style="fill:#E6F3FF;" cx="256" cy="256" r="256"/>
<path style="fill:#CFDBE6;" d="M317.733,504.489C429.292,476.863,512,376.098,512,256c0,0,0,0,0-0.002l-142.22-142.22
	l-120.098,82.46L120.81,278.25l95.942,95.947l-13.655,15.981L317.733,504.489z"/>
<path style="fill:#405A6B;" d="M222.677,398.222L222.677,398.222c-13.219,0-24.617-9.29-27.286-22.237L170.668,256h56.889
	l22.407,108.741C253.524,382.024,240.325,398.222,222.677,398.222z"/>
<polygon style="fill:#FC6F58;" points="369.78,341.333 170.668,284.444 170.668,142.222 369.78,113.778 "/>
<polygon style="fill:#F1543F;" points="170.668,210.604 170.668,284.444 369.78,341.333 369.78,210.604 "/>
<path style="fill:#324A5E;" d="M136.333,284.444h34.335V142.222h-34.335c-12.457,0-22.554,10.099-22.554,22.554v97.113
	C113.779,274.346,123.876,284.444,136.333,284.444z"/>
<path style="fill:#2B3B4E;" d="M113.779,210.604v51.286c0,12.457,10.099,22.554,22.554,22.554h34.335v-73.84H113.779z"/>
<polygon style="fill:#FD8469;" points="284.446,316.952 312.891,325.079 312.891,121.904 284.446,125.968 "/>
<polygon style="fill:#FC6F58;" points="284.446,210.604 284.446,316.952 312.891,325.079 312.891,210.604 "/>
<g>
</g>
<g>
</g>
<g>
</g>
<g>
</g>
<g>
</g>
<g>
</g>
<g>
</g>
<g>
</g>
<g>
</g>
<g>
</g>
<g>
</g>
<g>
</g>
<g>
</g>
<g>
</g>
<g>
</g>
</svg>
