<?xml version="1.0" encoding="iso-8859-1"?>
<!-- Generator: Adobe Illustrator 19.0.0, SVG Export Plug-In . SVG Version: 6.00 Build 0)  -->
<svg version="1.1" id="Layer_1" xmlns="http://www.w3.org/2000/svg" xmlns:xlink="http://www.w3.org/1999/xlink" x="0px" y="0px"
	 viewBox="0 0 512 512" style="enable-background:new 0 0 512 512;" xml:space="preserve">
<circle style="fill:#324A5E;" cx="256" cy="256" r="256"/>
<path style="fill:#2B3B4E;" d="M511.652,269.414L357.885,115.645c0,0-142.167,158.456-141.533,157.019L86.197,399.658
	l103.708,103.708c21.087,5.62,43.237,8.632,66.095,8.632C392.885,512,504.675,404.563,511.652,269.414z"/>
<polygon style="fill:#E6F3FF;" points="86.197,228.848 154.119,172.247 222.041,228.848 357.885,115.645 425.806,200.547 
	425.806,398.222 86.197,398.222 "/>
<g>
	<polygon style="fill:#CFDBE6;" points="425.806,200.547 357.885,115.645 253.273,202.823 253.273,398.222 425.806,398.222 	"/>
	<polygon style="fill:#CFDBE6;" points="86.197,285.737 232.713,285.737 312.891,227.556 369.78,284.444 425.806,257.436 
		425.806,399.658 86.197,399.658 	"/>
</g>
<polygon style="fill:#B8C9D9;" points="425.806,257.436 369.78,284.444 312.891,227.556 253.273,270.819 253.273,399.658 
	425.806,399.658 "/>
<circle style="fill:#FFD15D;" cx="199.111" cy="369.778" r="63.104"/>
<path style="fill:#F9B54C;" d="M199.113,306.674c-0.048,0-0.095,0.003-0.143,0.003v126.2c0.048,0,0.095,0.003,0.143,0.003
	c34.85,0,63.104-28.253,63.104-63.104S233.963,306.674,199.113,306.674z"/>
<path style="fill:#F4A200;" d="M199.113,445.63c-41.825,0-75.852-34.026-75.852-75.852s34.026-75.852,75.852-75.852
	s75.852,34.026,75.852,75.852S240.936,445.63,199.113,445.63z M199.113,319.422c-27.765,0-50.355,22.59-50.355,50.355
	s22.59,50.355,50.355,50.355s50.355-22.59,50.355-50.355S226.878,319.422,199.113,319.422z"/>
<path style="fill:#DB8C00;" d="M199.113,293.926c-0.048,0-0.095,0.003-0.143,0.003v25.497c0.048,0,0.095-0.003,0.143-0.003
	c27.765,0,50.355,22.59,50.355,50.355s-22.59,50.355-50.355,50.355c-0.048,0-0.095-0.003-0.143-0.003v25.497
	c0.048,0,0.095,0.003,0.143,0.003c41.825,0,75.852-34.026,75.852-75.852S240.936,293.926,199.113,293.926z"/>
<rect x="187.63" y="341.092" style="fill:#F4A200;" width="22.947" height="57.372"/>
<rect x="198.973" y="341.092" style="fill:#DB8C00;" width="11.617" height="57.372"/>
<g>
</g>
<g>
</g>
<g>
</g>
<g>
</g>
<g>
</g>
<g>
</g>
<g>
</g>
<g>
</g>
<g>
</g>
<g>
</g>
<g>
</g>
<g>
</g>
<g>
</g>
<g>
</g>
<g>
</g>
</svg>
