<?xml version="1.0" encoding="iso-8859-1"?>
<!-- Generator: Adobe Illustrator 19.0.0, SVG Export Plug-In . SVG Version: 6.00 Build 0)  -->
<svg version="1.1" id="Layer_1" xmlns="http://www.w3.org/2000/svg" xmlns:xlink="http://www.w3.org/1999/xlink" x="0px" y="0px"
	 viewBox="0 0 512 512" style="enable-background:new 0 0 512 512;" xml:space="preserve">
<circle style="fill:#324A5E;" cx="256" cy="256" r="256"/>
<path style="fill:#2B3B4E;" d="M305.021,507.292C422.952,484.419,512,380.616,512,256l0,0L398.224,142.222L260.886,251.114
	l0.153,0.153l-134.494,77.155L305.021,507.292z"/>
<rect x="256" y="142.222" style="fill:#FFD15D;" width="142.222" height="227.935"/>
<rect x="256" y="341.333" style="fill:#F9B54C;" width="142.222" height="28.444"/>
<rect x="256" y="312.889" style="fill:#FFD15D;" width="142.222" height="28.444"/>
<rect x="256" y="284.444" style="fill:#F9B54C;" width="142.222" height="28.444"/>
<rect x="256" y="256" style="fill:#FFD15D;" width="142.222" height="28.444"/>
<rect x="256" y="227.556" style="fill:#F9B54C;" width="142.222" height="28.444"/>
<rect x="256" y="199.111" style="fill:#FFD15D;" width="142.222" height="28.444"/>
<rect x="256" y="170.667" style="fill:#F9B54C;" width="142.222" height="28.444"/>
<rect x="256" y="142.222" style="fill:#FFD15D;" width="142.222" height="28.444"/>
<rect x="325.249" y="341.333" style="fill:#F4A200;" width="72.973" height="28.444"/>
<rect x="325.249" y="312.889" style="fill:#F9B54C;" width="72.973" height="28.444"/>
<rect x="325.249" y="284.444" style="fill:#F4A200;" width="72.973" height="28.444"/>
<rect x="325.249" y="256" style="fill:#F9B54C;" width="72.973" height="28.444"/>
<rect x="325.249" y="227.556" style="fill:#F4A200;" width="72.973" height="28.444"/>
<rect x="325.249" y="199.111" style="fill:#F9B54C;" width="72.973" height="28.444"/>
<rect x="325.249" y="170.667" style="fill:#F4A200;" width="72.973" height="28.444"/>
<rect x="325.249" y="142.222" style="fill:#F9B54C;" width="72.973" height="28.444"/>
<circle style="fill:#FFD15D;" cx="199.111" cy="256" r="85.333"/>
<path style="fill:#F9B54C;" d="M284.446,256c0-47.032-38.05-85.17-85.045-85.326v170.653
	C246.394,341.17,284.446,303.032,284.446,256z"/>
<path style="fill:#F4A200;" d="M199.113,358.572C142.553,358.572,96.54,312.56,96.54,256s46.013-102.572,102.572-102.572
	S301.685,199.44,301.685,256S255.671,358.572,199.113,358.572z M199.113,187.906c-37.547,0-68.094,30.548-68.094,68.094
	s30.548,68.094,68.094,68.094s68.094-30.548,68.094-68.094S236.66,187.906,199.113,187.906z"/>
<path style="fill:#D68900;" d="M301.685,256c0-56.463-45.858-102.409-102.285-102.566v34.478
	c37.414,0.157,67.806,30.637,67.806,68.087s-30.392,67.93-67.806,68.087v34.478C255.826,358.409,301.685,312.463,301.685,256z"/>
<rect x="183.596" y="217.212" style="fill:#F4A200;" width="31.03" height="77.576"/>
<rect x="199.404" y="217.212" style="fill:#D68900;" width="15.227" height="77.576"/>
<g>
</g>
<g>
</g>
<g>
</g>
<g>
</g>
<g>
</g>
<g>
</g>
<g>
</g>
<g>
</g>
<g>
</g>
<g>
</g>
<g>
</g>
<g>
</g>
<g>
</g>
<g>
</g>
<g>
</g>
</svg>
