<?xml version="1.0" encoding="iso-8859-1"?>
<!-- Generator: Adobe Illustrator 19.0.0, SVG Export Plug-In . SVG Version: 6.00 Build 0)  -->
<svg version="1.1" id="Layer_1" xmlns="http://www.w3.org/2000/svg" xmlns:xlink="http://www.w3.org/1999/xlink" x="0px" y="0px"
	 viewBox="0 0 512 512" style="enable-background:new 0 0 512 512;" xml:space="preserve">
<circle style="fill:#B5F1F4;" cx="256" cy="256" r="256"/>
<path style="fill:#84DBFF;" d="M512,256L512,256l-56.889-56.889l-21.299,50.905L297.574,113.778l-113.976,60.625v91.079H115.79
	L100.65,426.667l71.142,71.144C198.166,506.994,226.497,512,256,512C397.384,512,512,397.384,512,256z"/>
<rect x="170.667" y="113.778" style="fill:#FD8469;" width="126.897" height="84.609"/>
<rect x="170.667" y="153.135" style="fill:#FC6F58;" width="126.897" height="45.235"/>
<rect x="170.667" y="113.778" style="fill:#935635;" width="21.151" height="190.354"/>
<rect x="328.197" y="199.111" style="fill:#F9B54C;" width="126.897" height="84.609"/>
<rect x="328.197" y="240.485" style="fill:#F4A200;" width="126.897" height="43.236"/>
<rect x="328.197" y="199.111" style="fill:#935635;" width="21.151" height="190.354"/>
<rect x="100.642" y="236.313" style="fill:#D83E20;" width="126.897" height="84.609"/>
<rect x="100.642" y="277.842" style="fill:#C1321F;" width="126.897" height="43.075"/>
<rect x="100.642" y="236.313" style="fill:#935635;" width="21.151" height="190.354"/>
<g>
</g>
<g>
</g>
<g>
</g>
<g>
</g>
<g>
</g>
<g>
</g>
<g>
</g>
<g>
</g>
<g>
</g>
<g>
</g>
<g>
</g>
<g>
</g>
<g>
</g>
<g>
</g>
<g>
</g>
</svg>
