<?xml version="1.0" encoding="iso-8859-1"?>
<!-- Generator: Adobe Illustrator 19.0.0, SVG Export Plug-In . SVG Version: 6.00 Build 0)  -->
<svg version="1.1" id="Layer_1" xmlns="http://www.w3.org/2000/svg" xmlns:xlink="http://www.w3.org/1999/xlink" x="0px" y="0px"
	 viewBox="0 0 512 512" style="enable-background:new 0 0 512 512;" xml:space="preserve">
<circle style="fill:#324A5E;" cx="256" cy="256" r="256"/>
<path style="fill:#2B3B4E;" d="M508.114,300.639L369.778,162.302c0,0.44-147.968,145.415-147.968,145.415
	s-77.903,90.257-78.152,90.505l113.759,113.761C382.942,511.3,487.072,420.29,508.114,300.639z"/>
<polygon style="fill:#FFFFFF;" points="321.253,113.778 143.658,113.778 143.658,398.222 369.778,398.222 369.778,162.302 "/>
<polygon style="fill:#E6F3FF;" points="369.778,162.302 321.253,113.778 262.896,113.778 262.896,398.222 369.778,398.222 "/>
<g>
	<polygon style="fill:#CFDBE6;" points="321.253,162.304 369.778,162.302 321.253,113.778 	"/>
	<rect x="170.667" y="227.556" style="fill:#CFDBE6;" width="91.574" height="113.778"/>
</g>
<g>
	<rect x="271.963" y="227.556" style="fill:#B8C9D9;" width="30.525" height="113.778"/>
	<rect x="310.803" y="227.556" style="fill:#B8C9D9;" width="30.525" height="113.778"/>
</g>
<rect x="170.667" y="204.283" style="fill:#FD8469;" width="91.574" height="17.239"/>
<g>
	<rect x="271.963" y="204.283" style="fill:#FC6F58;" width="30.525" height="17.239"/>
	<rect x="310.803" y="204.283" style="fill:#FC6F58;" width="30.525" height="17.239"/>
</g>
<g>
</g>
<g>
</g>
<g>
</g>
<g>
</g>
<g>
</g>
<g>
</g>
<g>
</g>
<g>
</g>
<g>
</g>
<g>
</g>
<g>
</g>
<g>
</g>
<g>
</g>
<g>
</g>
<g>
</g>
</svg>
