<?xml version="1.0" encoding="iso-8859-1"?>
<!-- Generator: Adobe Illustrator 19.0.0, SVG Export Plug-In . SVG Version: 6.00 Build 0)  -->
<svg version="1.1" id="Layer_1" xmlns="http://www.w3.org/2000/svg" xmlns:xlink="http://www.w3.org/1999/xlink" x="0px" y="0px"
	 viewBox="0 0 512.002 512.002" style="enable-background:new 0 0 512.002 512.002;" xml:space="preserve">
<circle style="fill:#31BAFD;" cx="256.001" cy="256" r="256"/>
<path style="fill:#2B9ED8;" d="M511.896,263.161L390.359,141.157L201.124,305.79L89.39,360.932l150.187,150.53
	c5.432,0.343,10.905,0.54,16.424,0.54C394.991,512,508.103,401.234,511.896,263.161z"/>
<path style="fill:#FFFFFF;" d="M378.746,345.207H133.255c-9.1,0-16.479-7.378-16.479-16.479v-175.88
	c0-9.1,7.378-16.479,16.479-16.479h245.493c9.1,0,16.479,7.378,16.479,16.479v175.88
	C395.225,337.829,387.849,345.207,378.746,345.207z"/>
<path style="fill:#E6F3FF;" d="M378.746,136.368H256.001v208.837h122.746c9.1,0,16.479-7.378,16.479-16.479V152.848
	C395.225,143.746,387.849,136.368,378.746,136.368z"/>
<rect x="129.811" y="149.956" style="fill:#324A5E;" width="252.397" height="181.665"/>
<rect x="256.001" y="149.956" style="fill:#2B3B4E;" width="126.19" height="181.665"/>
<path style="fill:#CFDBE6;" d="M417.167,363.155H94.835c-4.294,0-7.777-3.482-7.777-7.777v-18.234c0-4.294,3.482-7.777,7.777-7.777
	h322.332c4.294,0,7.777,3.482,7.777,7.777v18.235C424.944,359.674,421.461,363.155,417.167,363.155z"/>
<path style="fill:#B8C9D9;" d="M417.167,329.366H256.001v33.789h161.166c4.294,0,7.777-3.482,7.777-7.777v-18.234
	C424.944,332.848,421.461,329.366,417.167,329.366z"/>
<circle style="fill:#FC6F58;" cx="256.001" cy="241.105" r="33.585"/>
<path style="fill:#F1543F;" d="M289.586,241.111c0-18.549-15.036-33.585-33.585-33.585v67.17
	C274.55,274.696,289.586,259.66,289.586,241.111z"/>
<path style="fill:#FFFFFF;" d="M249.388,222.799l23.064,13.317c3.846,2.22,3.846,7.771,0,9.992l-23.064,13.317
	c-3.846,2.22-8.654-0.555-8.654-4.996v-26.633C240.736,223.354,245.542,220.579,249.388,222.799z"/>
<path style="fill:#E6F3FF;" d="M272.454,236.115l-16.451-9.499v28.989l16.451-9.499C276.3,243.888,276.3,238.335,272.454,236.115z"
	/>
<g>
</g>
<g>
</g>
<g>
</g>
<g>
</g>
<g>
</g>
<g>
</g>
<g>
</g>
<g>
</g>
<g>
</g>
<g>
</g>
<g>
</g>
<g>
</g>
<g>
</g>
<g>
</g>
<g>
</g>
</svg>
