<?xml version="1.0" encoding="iso-8859-1"?>
<!-- Generator: Adobe Illustrator 19.0.0, SVG Export Plug-In . SVG Version: 6.00 Build 0)  -->
<svg version="1.1" id="Layer_1" xmlns="http://www.w3.org/2000/svg" xmlns:xlink="http://www.w3.org/1999/xlink" x="0px" y="0px"
	 viewBox="0 0 512 512" style="enable-background:new 0 0 512 512;" xml:space="preserve">
<circle style="fill:#31BAFD;" cx="256" cy="256" r="256"/>
<path style="fill:#2B9ED8;" d="M290.713,509.649C404.408,494.233,494.38,404.19,509.683,290.461L365.575,146.354
	c0.257-0.257-5.848,9.516-12.603,15.696l-90.938-90.939l-0.266,143.824l-68.998-68.892l-12.047,7.385c0,0-5.825,10.609-6.175,10.959
	l87.152,87.255l-0.012,6.628c-3.746,0.057-7.606,0.117-11.569,0.178l-55.255-55.255l-18.835,7.67l-1.248,12.472l35.457,35.743
	c-66.186,1.069-138.542,2.37-139.126,2.953l91.622,91.445l-16.47,12.007L290.713,509.649z"/>
<polygon style="fill:#324A5E;" points="440.889,249.966 262.034,249.966 262.034,71.111 249.966,71.111 249.966,249.966 
	71.111,249.966 71.111,262.034 249.966,262.034 249.966,440.889 262.034,440.889 262.034,262.034 440.889,262.034 "/>
<polygon style="fill:#2B3B4E;" points="262.034,249.966 262.034,71.111 256.576,71.111 256.576,440.889 262.034,440.889 
	262.034,262.034 440.889,262.034 440.889,249.966 "/>
<g>
	<circle style="fill:#734B46;" cx="184.889" cy="213.333" r="14.222"/>
	<circle style="fill:#734B46;" cx="355.556" cy="156.444" r="14.222"/>
</g>
<circle style="fill:#F4E3C3;" cx="327.111" cy="327.111" r="14.222"/>
<circle style="fill:#FFD15D;" cx="156.444" cy="355.556" r="14.222"/>
<circle style="fill:#E6F3FF;" cx="207.731" cy="298.667" r="12.929"/>
<circle style="fill:#F4E3C3;" cx="183.596" cy="155.152" r="12.929"/>
<circle style="fill:#FFD15D;" cx="327.111" cy="213.333" r="18.101"/>
<g>
</g>
<g>
</g>
<g>
</g>
<g>
</g>
<g>
</g>
<g>
</g>
<g>
</g>
<g>
</g>
<g>
</g>
<g>
</g>
<g>
</g>
<g>
</g>
<g>
</g>
<g>
</g>
<g>
</g>
</svg>
