<?xml version="1.0" encoding="iso-8859-1"?>
<!-- Generator: Adobe Illustrator 19.0.0, SVG Export Plug-In . SVG Version: 6.00 Build 0)  -->
<svg version="1.1" id="Layer_1" xmlns="http://www.w3.org/2000/svg" xmlns:xlink="http://www.w3.org/1999/xlink" x="0px" y="0px"
	 viewBox="0 0 512 512" style="enable-background:new 0 0 512 512;" xml:space="preserve">
<circle style="fill:#324A5E;" cx="256" cy="256" r="256"/>
<path style="fill:#2B3B4E;" d="M302.101,507.82c49.423-9.002,96.709-32.59,134.918-70.801
	c51.691-51.691,76.65-119.989,74.888-187.721l-105.62-105.441l-36.971,58.816l-67.346-70.22l-79.874-8.045l-28.444,22.699
	l-87.921,95.465l31.951,31.872l18.649,81.799l49.442,50.652l0.364,3.5L302.101,507.82z"/>
<path style="fill:#F4E3C3;" d="M256,397.36c-37.757,0-73.256-14.703-99.955-41.403c-26.7-26.7-41.405-62.199-41.405-99.957
	s14.705-73.257,41.406-99.955c26.696-26.698,62.199-41.403,99.954-41.403c0.003,0-0.002,0,0.002,0
	c37.757,0,73.256,14.703,99.954,41.403c26.7,26.7,41.406,62.199,41.406,99.957s-14.705,73.257-41.406,99.955
	C329.257,382.657,293.759,397.36,256,397.36z M256,137.052c-31.772,0-61.642,12.372-84.108,34.838
	c-22.469,22.466-34.842,52.338-34.842,84.109c0,31.773,12.374,61.643,34.84,84.111l0,0c22.468,22.466,52.338,34.838,84.109,34.838
	c31.773,0,61.643-12.372,84.109-34.838c22.468-22.466,34.842-52.338,34.842-84.109c0-31.773-12.374-61.643-34.84-84.111
	C317.642,149.425,287.772,137.052,256,137.052z"/>
<path style="fill:#FED8B2;" d="M397.362,256.002c0-37.759-14.705-73.257-41.406-99.957c-26.698-26.7-62.197-41.403-99.954-41.403
	c-0.002,0-0.002,0-0.002,0v22.411c31.773,0,61.643,12.372,84.111,34.838c22.466,22.466,34.84,52.338,34.84,84.111
	c0,31.772-12.374,61.643-34.842,84.109c-22.468,22.466-52.338,34.838-84.109,34.838v22.411c37.759,0,73.257-14.703,99.955-41.403
	C382.655,329.257,397.362,293.759,397.362,256.002z"/>
<circle style="fill:#E6F3FF;" cx="256" cy="360.176" r="58.733"/>
<g>
	<path style="fill:#CFDBE6;" d="M314.739,360.169c0-32.44-26.298-58.74-58.74-58.74v117.481
		C288.44,418.909,314.739,392.611,314.739,360.169z"/>
	<path style="fill:#CFDBE6;" d="M256,430.976c-39.043,0-70.808-31.765-70.808-70.808s31.765-70.808,70.808-70.808
		s70.808,31.765,70.808,70.808S295.043,430.976,256,430.976z M256,313.497c-25.736,0-46.673,20.937-46.673,46.673
		c0,25.736,20.937,46.671,46.673,46.671s46.673-20.937,46.673-46.673C302.673,334.433,281.734,313.497,256,313.497z"/>
</g>
<path style="fill:#B8C9D9;" d="M326.808,360.169c0-39.043-31.765-70.808-70.808-70.808v24.135c25.734,0,46.673,20.937,46.673,46.673
	c0,25.736-20.939,46.673-46.673,46.673v24.135C295.043,430.976,326.808,399.212,326.808,360.169z"/>
<circle style="fill:#FFD15D;" cx="156.444" cy="193.198" r="58.733"/>
<path style="fill:#F9B54C;" d="M156.444,264.011c-39.043,0-70.808-31.765-70.808-70.808s31.763-70.806,70.808-70.806
	s70.808,31.765,70.808,70.808S195.487,264.011,156.444,264.011z M156.444,146.532c-25.736,0-46.673,20.937-46.673,46.673
	s20.939,46.673,46.673,46.673s46.673-20.937,46.673-46.673S182.179,146.532,156.444,146.532z"/>
<circle style="fill:#90DFAA;" cx="355.556" cy="193.198" r="58.733"/>
<path style="fill:#2C9984;" d="M355.556,264.011c-39.043,0-70.808-31.765-70.808-70.808s31.763-70.806,70.808-70.806
	s70.808,31.765,70.808,70.808S394.599,264.011,355.556,264.011z M355.556,146.532c-25.736,0-46.673,20.937-46.673,46.673
	s20.939,46.673,46.673,46.673c25.734,0,46.673-20.937,46.673-46.673S381.29,146.532,355.556,146.532z"/>
<rect x="143.946" y="166.564" style="fill:#F9B54C;" width="24.135" height="56.889"/>
<g>
</g>
<g>
</g>
<g>
</g>
<g>
</g>
<g>
</g>
<g>
</g>
<g>
</g>
<g>
</g>
<g>
</g>
<g>
</g>
<g>
</g>
<g>
</g>
<g>
</g>
<g>
</g>
<g>
</g>
</svg>
