<?xml version="1.0" encoding="iso-8859-1"?>
<!-- Generator: Adobe Illustrator 19.0.0, SVG Export Plug-In . SVG Version: 6.00 Build 0)  -->
<svg version="1.1" id="Layer_1" xmlns="http://www.w3.org/2000/svg" xmlns:xlink="http://www.w3.org/1999/xlink" x="0px" y="0px"
	 viewBox="0 0 512 512" style="enable-background:new 0 0 512 512;" xml:space="preserve">
<circle style="fill:#31BAFD;" cx="256" cy="256" r="256"/>
<path style="fill:#2B9ED8;" d="M511.752,266.955l-176.075-176L226.12,292.778l-49.993,99.626L292.73,509.368
	C413.179,492.058,506.53,390.911,511.752,266.955z"/>
<path style="fill:#324A5E;" d="M322.084,398.222H189.918c-10.631,0-19.249-8.618-19.249-19.249V104.584
	c0-10.631,8.618-19.251,19.249-19.251h132.167c10.631,0,19.251,8.618,19.251,19.251v274.389
	C341.335,389.604,332.716,398.222,322.084,398.222z"/>
<path style="fill:#2B3B4E;" d="M322.084,85.333h-66.658v312.889h66.658c10.631,0,19.251-8.618,19.251-19.251V104.584
	C341.335,93.951,332.716,85.333,322.084,85.333z"/>
<rect x="177.562" y="113.778" style="fill:#FFFFFF;" width="156.875" height="256"/>
<rect x="255.431" y="113.778" style="fill:#E6F3FF;" width="79.012" height="256"/>
<rect x="284.634" y="227.556" style="fill:#F4A200;" width="28.26" height="113.778"/>
<rect x="196.318" y="256" style="fill:#FC6F58;" width="28.26" height="85.333"/>
<rect x="240.468" y="281.893" style="fill:#9A4F03;" width="28.26" height="59.442"/>
<rect x="255.431" y="281.893" style="fill:#804000;" width="13.305" height="59.442"/>
<g>
</g>
<g>
</g>
<g>
</g>
<g>
</g>
<g>
</g>
<g>
</g>
<g>
</g>
<g>
</g>
<g>
</g>
<g>
</g>
<g>
</g>
<g>
</g>
<g>
</g>
<g>
</g>
<g>
</g>
</svg>
