<?xml version="1.0" encoding="iso-8859-1"?>
<!-- Generator: Adobe Illustrator 19.0.0, SVG Export Plug-In . SVG Version: 6.00 Build 0)  -->
<svg version="1.1" id="Layer_1" xmlns="http://www.w3.org/2000/svg" xmlns:xlink="http://www.w3.org/1999/xlink" x="0px" y="0px"
	 viewBox="0 0 512 512" style="enable-background:new 0 0 512 512;" xml:space="preserve">
<circle style="fill:#F4E3C3;" cx="256" cy="256" r="256"/>
<path style="fill:#FED8B2;" d="M299.68,508.273c112.554-19.353,199.975-112.181,211.108-227.338L302.875,73.069l-57.504,62.257
	v219.224l0.09,0.09l-1.527,97.885L299.68,508.273z"/>
<path style="fill:#2B9ED8;" d="M300.692,415.984L270.1,450.794c-7.475,8.506-20.725,8.506-28.2,0l-30.592-34.811
	c-3.386-3.853-5.048-8.925-4.599-14.034l22.788-259.317c0.852-9.692,8.969-17.127,18.699-17.127h15.607
	c9.73,0,17.848,7.435,18.699,17.127l22.788,259.317C305.74,407.059,304.078,412.131,300.692,415.984z"/>
<path style="fill:#1388B7;" d="M305.29,401.949l-22.788-259.317c-0.852-9.692-8.969-17.127-18.699-17.127h-8.952v331.609
	c5.556,0.338,11.235-1.753,15.248-6.322l30.591-34.811C304.078,412.131,305.74,407.059,305.29,401.949z"/>
<path style="fill:#31BAFD;" d="M273.729,153.95H238.27c-6.399,0-12.079-4.094-14.103-10.166l-18.534-55.601
	c-3.208-9.626,3.956-19.568,14.103-19.568h72.526c10.147,0,17.311,9.942,14.103,19.568l-18.534,55.601
	C285.81,149.856,280.128,153.95,273.729,153.95z"/>
<path style="fill:#2B9ED8;" d="M292.262,68.617H254.85v85.333h18.879c6.399,0,12.079-4.094,14.103-10.166l18.534-55.601
	C309.576,78.558,302.409,68.617,292.262,68.617z"/>
<g>
</g>
<g>
</g>
<g>
</g>
<g>
</g>
<g>
</g>
<g>
</g>
<g>
</g>
<g>
</g>
<g>
</g>
<g>
</g>
<g>
</g>
<g>
</g>
<g>
</g>
<g>
</g>
<g>
</g>
</svg>
