<?xml version="1.0" encoding="iso-8859-1"?>
<!-- Generator: Adobe Illustrator 19.0.0, SVG Export Plug-In . SVG Version: 6.00 Build 0)  -->
<svg version="1.1" id="Layer_1" xmlns="http://www.w3.org/2000/svg" xmlns:xlink="http://www.w3.org/1999/xlink" x="0px" y="0px"
	 viewBox="0 0 512 512" style="enable-background:new 0 0 512 512;" xml:space="preserve">
<circle style="fill:#FFD15D;" cx="256" cy="256" r="256"/>
<path style="fill:#F9B54C;" d="M508.114,300.639L369.778,162.302l-154.29,169.262l-71.83,66.658l113.761,113.761
	C382.942,511.3,487.072,420.29,508.114,300.639z"/>
<polygon style="fill:#FFFFFF;" points="321.253,113.778 143.658,113.778 143.658,398.222 369.778,398.222 369.778,162.302 "/>
<polygon style="fill:#E6F3FF;" points="369.778,162.302 321.253,113.778 235.313,113.778 235.313,398.222 369.778,398.222 "/>
<polygon style="fill:#CFDBE6;" points="321.253,162.304 369.778,162.302 321.253,113.778 "/>
<circle style="fill:#26BEBE;" cx="237.037" cy="215.143" r="37.9"/>
<path style="fill:#1CA09C;" d="M237.037,177.24c-0.578,0-1.152,0.017-1.724,0.043v75.712c0.572,0.026,1.145,0.043,1.724,0.043
	c20.932,0,37.9-16.968,37.9-37.9S257.969,177.24,237.037,177.24z"/>
<path style="fill:#324A5E;" d="M158.868,334.76c0-43.172,34.997-78.169,78.169-78.169s78.169,34.997,78.169,78.169L158.868,334.76
	L158.868,334.76z"/>
<path style="fill:#2B3B4E;" d="M237.037,256.593c-0.578,0-1.148,0.031-1.724,0.043v78.124h79.891
	C315.206,291.59,280.209,256.593,237.037,256.593z"/>
<polygon style="fill:#FD8469;" points="257.389,366.997 257.389,268.254 291.245,296.465 342.028,254.147 375.884,296.465 
	375.884,366.997 274.318,366.997 "/>
<polygon style="fill:#A82116;" points="257.389,338.785 291.245,310.572 325.101,338.785 392.811,282.358 426.667,324.679 
	426.667,381.104 257.389,381.104 "/>
<g>
</g>
<g>
</g>
<g>
</g>
<g>
</g>
<g>
</g>
<g>
</g>
<g>
</g>
<g>
</g>
<g>
</g>
<g>
</g>
<g>
</g>
<g>
</g>
<g>
</g>
<g>
</g>
<g>
</g>
</svg>
