<?xml version="1.0" encoding="iso-8859-1"?>
<!-- Generator: Adobe Illustrator 19.0.0, SVG Export Plug-In . SVG Version: 6.00 Build 0)  -->
<svg version="1.1" id="Layer_1" xmlns="http://www.w3.org/2000/svg" xmlns:xlink="http://www.w3.org/1999/xlink" x="0px" y="0px"
	 viewBox="0 0 512 512" style="enable-background:new 0 0 512 512;" xml:space="preserve">
<circle style="fill:#324A5E;" cx="256" cy="256" r="256"/>
<path style="fill:#2B3B4E;" d="M295.215,508.978c51.905-8.002,101.823-31.977,141.805-71.959s63.957-89.902,71.959-141.807
	L384.433,170.667l-37.004,25.057l-53.501-53.501l-60.911,47.12l46.195,46.196L127.571,341.333L295.215,508.978z"/>
<rect x="127.569" y="170.667" style="fill:#B5F1F4;" width="256.862" height="170.667"/>
<rect x="256" y="170.667" style="fill:#84DBFF;" width="128.431" height="170.667"/>
<rect x="218.074" y="142.222" style="fill:#FD8469;" width="75.852" height="56.889"/>
<rect x="256" y="142.222" style="fill:#FC6F58;" width="37.926" height="56.889"/>
<g>
	<rect x="153.428" y="213.333" style="fill:#31BAFD;" width="56.889" height="85.333"/>
	<rect x="235.313" y="265.051" style="fill:#31BAFD;" width="113.778" height="10.343"/>
	<rect x="235.313" y="245.657" style="fill:#31BAFD;" width="113.778" height="10.343"/>
</g>
<g>
	<rect x="256" y="265.051" style="fill:#2B9ED8;" width="93.091" height="10.343"/>
	<rect x="256" y="245.657" style="fill:#2B9ED8;" width="93.091" height="10.343"/>
</g>
<g>
</g>
<g>
</g>
<g>
</g>
<g>
</g>
<g>
</g>
<g>
</g>
<g>
</g>
<g>
</g>
<g>
</g>
<g>
</g>
<g>
</g>
<g>
</g>
<g>
</g>
<g>
</g>
<g>
</g>
</svg>
