<?xml version="1.0" encoding="iso-8859-1"?>
<!-- Generator: Adobe Illustrator 19.0.0, SVG Export Plug-In . SVG Version: 6.00 Build 0)  -->
<svg version="1.1" id="Layer_1" xmlns="http://www.w3.org/2000/svg" xmlns:xlink="http://www.w3.org/1999/xlink" x="0px" y="0px"
	 viewBox="0 0 512 512" style="enable-background:new 0 0 512 512;" xml:space="preserve">
<circle style="fill:#FFD15D;" cx="256" cy="256" r="256"/>
<path style="fill:#F9B54C;" d="M512,256c0-10.23-0.619-20.314-1.786-30.23l-83.546-83.547L216.928,285.88L85.335,369.778
	l140.436,140.436C235.687,511.381,245.77,512,256,512C397.384,512,512,397.384,512,256z"/>
<path style="fill:#935635;" d="M224.684,369.778H85.335V142.222h139.348c17.296,0,31.318,14.021,31.318,31.316V338.46
	C256.002,355.757,241.979,369.778,224.684,369.778z"/>
<path style="fill:#804000;" d="M287.318,369.778h139.348V142.222H287.318c-17.296,0-31.318,14.021-31.318,31.316V338.46
	C256.002,355.757,270.022,369.778,287.318,369.778z"/>
<path style="fill:#FED8B2;" d="M282.257,160.611c-14.501,0-26.257,11.755-26.257,26.257c0-14.501-11.755-26.257-26.255-26.257
	H112.916v190.779h116.829c14.501,0,26.255-11.755,26.255-26.255c0,14.501,11.755,26.255,26.257,26.255h116.827V160.611H282.257z"/>
<path style="fill:#F4E3C3;" d="M229.745,351.389H112.918V160.611h116.827c14.501,0,26.257,11.755,26.257,26.255v138.268
	C256.002,339.634,244.246,351.389,229.745,351.389z"/>
<g>
</g>
<g>
</g>
<g>
</g>
<g>
</g>
<g>
</g>
<g>
</g>
<g>
</g>
<g>
</g>
<g>
</g>
<g>
</g>
<g>
</g>
<g>
</g>
<g>
</g>
<g>
</g>
<g>
</g>
</svg>
