<?xml version="1.0" encoding="iso-8859-1"?>
<!-- Generator: Adobe Illustrator 19.0.0, SVG Export Plug-In . SVG Version: 6.00 Build 0)  -->
<svg version="1.1" id="Layer_1" xmlns="http://www.w3.org/2000/svg" xmlns:xlink="http://www.w3.org/1999/xlink" x="0px" y="0px"
	 viewBox="0 0 512 512" style="enable-background:new 0 0 512 512;" xml:space="preserve">
<circle style="fill:#FFD15D;" cx="256" cy="256" r="256"/>
<path style="fill:#F9B54C;" d="M257.419,511.983c125.523-0.683,229.655-91.693,250.696-211.344L369.778,162.302l-51.141,48.876
	L143.658,398.222L257.419,511.983z"/>
<polygon style="fill:#FFFFFF;" points="321.253,113.778 143.658,113.778 143.658,398.222 369.778,398.222 369.778,162.302 "/>
<polygon style="fill:#E6F3FF;" points="369.778,162.302 321.253,113.778 237.037,113.778 237.037,398.222 369.778,398.222 "/>
<polygon style="fill:#CFDBE6;" points="321.253,162.304 369.778,162.302 321.253,113.778 "/>
<circle style="fill:#26BEBE;" cx="237.037" cy="215.143" r="37.9"/>
<path style="fill:#1EA5A1;" d="M274.937,215.14c0-20.932-16.968-37.9-37.898-37.9v75.798
	C257.969,253.038,274.937,236.07,274.937,215.14z"/>
<path style="fill:#324A5E;" d="M158.868,334.76c0-43.172,34.997-78.169,78.169-78.169s78.169,34.997,78.169,78.169L158.868,334.76
	L158.868,334.76z"/>
<path style="fill:#2B3B4E;" d="M237.037,256.593v78.169h78.167C315.206,291.59,280.209,256.593,237.037,256.593z"/>
<rect x="241.364" y="279.911" style="fill:#2C9984;" width="176.287" height="88.143"/>
<rect x="247.777" y="285.513" style="fill:#90DFAA;" width="163.461" height="76.924"/>
<ellipse style="fill:#2C9984;" cx="329.507" cy="323.991" rx="17.629" ry="26.443"/>
<g>
</g>
<g>
</g>
<g>
</g>
<g>
</g>
<g>
</g>
<g>
</g>
<g>
</g>
<g>
</g>
<g>
</g>
<g>
</g>
<g>
</g>
<g>
</g>
<g>
</g>
<g>
</g>
<g>
</g>
</svg>
