<?xml version="1.0" encoding="iso-8859-1"?>
<!-- Generator: Adobe Illustrator 19.0.0, SVG Export Plug-In . SVG Version: 6.00 Build 0)  -->
<svg version="1.1" id="Layer_1" xmlns="http://www.w3.org/2000/svg" xmlns:xlink="http://www.w3.org/1999/xlink" x="0px" y="0px"
	 viewBox="0 0 512.002 512.002" style="enable-background:new 0 0 512.002 512.002;" xml:space="preserve">
<circle style="fill:#31BAFD;" cx="256.001" cy="256" r="256"/>
<path style="fill:#2B9ED8;" d="M390.465,157.868c0,0-32.59,30.07-47.004,43.37L227.556,85.333l-7.199,12.471l-93.649,26.448
	l49.695,49.695l47.688,151.28c-36.195,23.169-103.395,66.258-102.555,66.258l120.108,120.108c4.753,0.262,9.537,0.409,14.357,0.409
	c133.83,0,243.655-102.7,255.012-233.584L390.465,157.868z"/>
<rect x="160.324" y="112.028" style="fill:#CFDBE6;" width="33.616" height="67.232"/>
<rect x="121.536" y="157.875" style="fill:#FFFFFF;" width="268.929" height="201.697"/>
<rect x="257.725" y="157.875" style="fill:#E6F3FF;" width="132.741" height="201.697"/>
<rect x="121.536" y="327.646" style="fill:#324A5E;" width="268.929" height="63.836"/>
<g>
	<rect x="257.725" y="327.646" style="fill:#2B3B4E;" width="132.741" height="63.836"/>
	<rect x="130.156" y="336.3" style="fill:#2B3B4E;" width="251.69" height="46.545"/>
</g>
<rect x="257.725" y="336.3" style="fill:#1E2C3A;" width="124.121" height="46.545"/>
<rect x="126.708" y="85.333" style="fill:#E6F3FF;" width="100.848" height="38.919"/>
<rect x="132.311" y="91.867" style="fill:#B5F1F4;" width="89.643" height="25.859"/>
<rect x="142.223" y="184.837" style="fill:#4CDBC4;" width="100.848" height="67.232"/>
<g>
	<rect x="266.344" y="184.837" style="fill:#F9B54C;" width="20.113" height="17.961"/>
	<rect x="266.344" y="212.592" style="fill:#F9B54C;" width="20.113" height="17.961"/>
	<rect x="266.344" y="239.537" style="fill:#F9B54C;" width="20.113" height="17.961"/>
	<rect x="266.344" y="266.481" style="fill:#F9B54C;" width="20.113" height="17.961"/>
	<rect x="294.116" y="184.837" style="fill:#F9B54C;" width="20.113" height="17.961"/>
	<rect x="294.116" y="212.592" style="fill:#F9B54C;" width="20.113" height="17.961"/>
	<rect x="294.116" y="239.537" style="fill:#F9B54C;" width="20.113" height="17.961"/>
	<rect x="294.116" y="266.481" style="fill:#F9B54C;" width="20.113" height="17.961"/>
	<rect x="321.889" y="184.837" style="fill:#F9B54C;" width="20.113" height="17.961"/>
	<rect x="321.889" y="212.592" style="fill:#F9B54C;" width="20.113" height="17.961"/>
	<rect x="321.889" y="239.537" style="fill:#F9B54C;" width="20.113" height="17.961"/>
	<rect x="321.889" y="266.481" style="fill:#F9B54C;" width="20.113" height="17.961"/>
	<rect x="349.661" y="184.837" style="fill:#F9B54C;" width="20.113" height="17.961"/>
	<rect x="349.661" y="212.592" style="fill:#F9B54C;" width="20.113" height="17.961"/>
	<rect x="349.661" y="239.537" style="fill:#F9B54C;" width="20.113" height="17.961"/>
	<rect x="349.661" y="266.481" style="fill:#F9B54C;" width="20.113" height="17.961"/>
</g>
<g>
</g>
<g>
</g>
<g>
</g>
<g>
</g>
<g>
</g>
<g>
</g>
<g>
</g>
<g>
</g>
<g>
</g>
<g>
</g>
<g>
</g>
<g>
</g>
<g>
</g>
<g>
</g>
<g>
</g>
</svg>
