<?xml version="1.0" encoding="iso-8859-1"?>
<!-- Generator: Adobe Illustrator 19.0.0, SVG Export Plug-In . SVG Version: 6.00 Build 0)  -->
<svg version="1.1" id="Layer_1" xmlns="http://www.w3.org/2000/svg" xmlns:xlink="http://www.w3.org/1999/xlink" x="0px" y="0px"
	 viewBox="0 0 512.002 512.002" style="enable-background:new 0 0 512.002 512.002;" xml:space="preserve">
<circle style="fill:#324A5E;" cx="256.001" cy="256" r="256"/>
<path style="fill:#2B3B4E;" d="M510.656,282.384L392.693,164.419c0-0.14-21.587,38.395-36.769,65.515l-109.22-109.22
	c-0.488,0.488-7.656,41.012-13.079,72.004l-72.006-72.004c-0.193-0.193-19.396,106.841-19.396,106.841l0,0
	c0,0-39.071,151.083-39.65,151.662L234.445,511.09c7.109,0.593,14.295,0.912,21.556,0.912
	C388.478,512,497.449,411.372,510.656,282.384z"/>
<polygon style="fill:#F4E3C3;" points="187.657,288.091 109.546,288.091 135.583,120.715 161.62,120.715 "/>
<polygon style="fill:#FED8B2;" points="161.619,120.715 149.119,120.715 149.119,288.091 187.657,288.091 "/>
<polygon style="fill:#F4E3C3;" points="272.738,288.091 194.63,288.091 220.666,120.715 246.702,120.715 "/>
<polygon style="fill:#FED8B2;" points="246.702,120.715 233.59,120.715 233.59,288.091 272.738,288.091 "/>
<rect x="286.686" y="164.426" style="fill:#FFD15D;" width="106.003" height="214.799"/>
<rect x="102.573" y="225.797" style="fill:#FFD300;" width="306.855" height="153.428"/>
<rect x="258.294" y="225.797" style="fill:#F4A200;" width="151.135" height="153.428"/>
<polygon style="fill:#FFD15D;" points="213.869,164.419 253.501,164.419 248.728,133.734 218.64,133.734 "/>
<polygon style="fill:#F9B54C;" points="248.728,133.734 233.59,133.734 233.59,164.419 253.501,164.419 "/>
<polygon style="fill:#FFD15D;" points="128.785,164.419 168.418,164.419 163.644,133.734 133.559,133.734 "/>
<polygon style="fill:#F9B54C;" points="163.644,133.734 149.119,133.734 149.119,164.419 168.418,164.419 "/>
<rect x="307.149" y="287.168" style="fill:#FED8B2;" width="81.834" height="92.057"/>
<g>
	<rect x="133.259" y="256.483" style="fill:#F4E3C3;" width="57.535" height="46.028"/>
	<rect x="229.16" y="256.483" style="fill:#F4E3C3;" width="57.535" height="46.028"/>
</g>
<rect x="258.294" y="256.483" style="fill:#FED8B2;" width="28.386" height="46.028"/>
<g>
</g>
<g>
</g>
<g>
</g>
<g>
</g>
<g>
</g>
<g>
</g>
<g>
</g>
<g>
</g>
<g>
</g>
<g>
</g>
<g>
</g>
<g>
</g>
<g>
</g>
<g>
</g>
<g>
</g>
</svg>
