<?xml version="1.0" encoding="iso-8859-1"?>
<!-- Generator: Adobe Illustrator 19.0.0, SVG Export Plug-In . SVG Version: 6.00 Build 0)  -->
<svg version="1.1" id="Layer_1" xmlns="http://www.w3.org/2000/svg" xmlns:xlink="http://www.w3.org/1999/xlink" x="0px" y="0px"
	 viewBox="0 0 512 512" style="enable-background:new 0 0 512 512;" xml:space="preserve">
<circle style="fill:#324A5E;" cx="256" cy="256" r="256"/>
<path style="fill:#2B3B4E;" d="M507.754,302.609l-199.03-199.751L203.135,301.396c0,0-45.332,83.882-45.332,85.461l123.133,123.932
	C395.092,499.752,487.309,413.748,507.754,302.609z"/>
<path style="fill:#FFFFFF;" d="M359.324,347.503l-60.456-104.712V108.659h-85.737v134.132l-60.456,104.712
	c-12.559,21.752,3.139,48.942,28.257,48.942h150.135C356.185,396.445,371.883,369.255,359.324,347.503z"/>
<path style="fill:#E6F3FF;" d="M359.324,347.503L298.868,242.79v-134.13H256v287.787h75.066
	C356.185,396.445,371.883,369.255,359.324,347.503z"/>
<path style="fill:#84DBFF;" d="M319.766,278.985H192.234l-39.558,68.518c-12.559,21.752,3.139,48.943,28.257,48.943h150.135
	c25.117,0,40.815-27.189,28.257-48.943L319.766,278.985z"/>
<path style="fill:#31BAFD;" d="M359.324,347.503l-39.558-68.518H256v117.46h75.066C356.185,396.445,371.883,369.255,359.324,347.503
	z"/>
<path style="fill:#B5F1F4;" d="M298.667,127.138h-85.333c-7.854,0-14.222-6.368-14.222-14.222l0,0
	c0-7.854,6.368-14.222,14.222-14.222h85.333c7.854,0,14.222,6.368,14.222,14.222l0,0
	C312.889,120.77,306.521,127.138,298.667,127.138z"/>
<path style="fill:#84DBFF;" d="M298.667,98.694H256v28.444h42.667c7.854,0,14.222-6.368,14.222-14.222
	S306.521,98.694,298.667,98.694z"/>
<g>
	<circle style="fill:#E6F3FF;" cx="213.333" cy="327.111" r="14.222"/>
	<circle style="fill:#E6F3FF;" cx="298.667" cy="355.556" r="18.101"/>
</g>
<g>
</g>
<g>
</g>
<g>
</g>
<g>
</g>
<g>
</g>
<g>
</g>
<g>
</g>
<g>
</g>
<g>
</g>
<g>
</g>
<g>
</g>
<g>
</g>
<g>
</g>
<g>
</g>
<g>
</g>
</svg>
