<?xml version="1.0" encoding="iso-8859-1"?>
<!-- Generator: Adobe Illustrator 19.0.0, SVG Export Plug-In . SVG Version: 6.00 Build 0)  -->
<svg version="1.1" id="Layer_1" xmlns="http://www.w3.org/2000/svg" xmlns:xlink="http://www.w3.org/1999/xlink" x="0px" y="0px"
	 viewBox="0 0 512.002 512.002" style="enable-background:new 0 0 512.002 512.002;" xml:space="preserve">
<circle style="fill:#324A5E;" cx="256.001" cy="256" r="256"/>
<path style="fill:#2B3B4E;" d="M511.704,268.226L360.744,117.265l-26.467,117.193L217.084,117.265l-50.724,31.279l-48.269,42.772
	l87.373,87.373L118.09,380.945l130.96,130.96c2.31,0.062,4.627,0.097,6.953,0.097C393.286,512,505.322,403.932,511.704,268.226z"/>
<polygon style="fill:#FC6F58;" points="227.008,194.841 128.277,194.841 151.262,117.265 217.082,117.265 "/>
<polygon style="fill:#F1543F;" points="284.995,194.841 383.727,194.841 360.742,117.265 294.921,117.265 "/>
<rect x="126.708" y="168.977" style="fill:#FFD15D;" width="103.434" height="206.869"/>
<g>
	<rect x="281.859" y="168.977" style="fill:#F9B54C;" width="103.434" height="206.869"/>
	<rect x="126.708" y="220.694" style="fill:#F9B54C;" width="103.434" height="103.434"/>
</g>
<rect x="281.859" y="220.694" style="fill:#F4A200;" width="103.434" height="103.434"/>
<rect x="118.088" y="165.46" style="fill:#FD8469;" width="120.673" height="25.859"/>
<rect x="273.24" y="165.46" style="fill:#FC6F58;" width="120.673" height="25.859"/>
<rect x="118.088" y="355.09" style="fill:#FD8469;" width="120.673" height="25.859"/>
<rect x="273.24" y="355.09" style="fill:#FC6F58;" width="120.673" height="25.859"/>
<rect x="204.284" y="243.433" style="fill:#FD8469;" width="51.717" height="51.717"/>
<g>
	<rect x="256.001" y="243.433" style="fill:#F1543F;" width="51.717" height="51.717"/>
	<circle style="fill:#F1543F;" cx="256.001" cy="269.291" r="28.993"/>
</g>
<path style="fill:#D83E20;" d="M256.003,240.288c16.012,0,28.993,12.981,28.993,28.993s-12.981,28.993-28.993,28.993V240.288z"/>
<g>
</g>
<g>
</g>
<g>
</g>
<g>
</g>
<g>
</g>
<g>
</g>
<g>
</g>
<g>
</g>
<g>
</g>
<g>
</g>
<g>
</g>
<g>
</g>
<g>
</g>
<g>
</g>
<g>
</g>
</svg>
