<?xml version="1.0" encoding="iso-8859-1"?>
<!-- Generator: Adobe Illustrator 19.0.0, SVG Export Plug-In . SVG Version: 6.00 Build 0)  -->
<svg version="1.1" id="Layer_1" xmlns="http://www.w3.org/2000/svg" xmlns:xlink="http://www.w3.org/1999/xlink" x="0px" y="0px"
	 viewBox="0 0 512 512" style="enable-background:new 0 0 512 512;" xml:space="preserve">
<circle style="fill:#FFD15D;" cx="256" cy="256" r="256"/>
<g>
	<path style="fill:#F9B54C;" d="M407.574,178.495l-9.964,14.258l-46.942-46.721l-13.933,16.893l-30.742,22.107l181.143,181.143
		c12.719-26.684,20.558-55.11,23.511-83.946L407.574,178.495z"/>
	<path style="fill:#F9B54C;" d="M353.359,241.055l-42.667,47.226l-68.222-68.363l-8.509,8.011l-114.15-114.152l-5.532,146.872
		l-0.79-0.628v88.954l-26.577,1.407l161.49,161.49c68.024,2.007,136.695-22.937,188.614-74.855
		c19.609-19.609,35.356-41.617,47.273-65.069L353.359,241.055z"/>
</g>
<circle style="fill:#31BAFD;" cx="165.443" cy="296.564" r="16.324"/>
<circle style="fill:#FC6F58;" cx="230.745" cy="231.262" r="16.324"/>
<g>
	<circle style="fill:#31BAFD;" cx="263.378" cy="296.564" r="16.324"/>
	<circle style="fill:#31BAFD;" cx="328.68" cy="165.978" r="29.68"/>
	<circle style="fill:#31BAFD;" cx="391.499" cy="193.181" r="21.766"/>
</g>
<g>
	<path style="fill:#2B9ED8;" d="M165.442,280.24c-0.079,0-0.155,0.01-0.234,0.012v32.625c0.079,0.002,0.155,0.012,0.234,0.012
		c9.016,0,16.324-7.309,16.324-16.324S174.458,280.24,165.442,280.24z"/>
	<path style="fill:#2B9ED8;" d="M263.387,280.24c-0.165,0-0.326,0.021-0.491,0.024v32.599c0.164,0.005,0.326,0.024,0.491,0.024
		c9.016,0,16.324-7.309,16.324-16.324S272.403,280.24,263.387,280.24z"/>
	<path style="fill:#2B9ED8;" d="M328.683,136.29c-0.095,0-0.184,0.014-0.279,0.014v59.333c0.095,0,0.184,0.014,0.279,0.014
		c16.393,0,29.68-13.288,29.68-29.68C358.364,149.58,345.076,136.29,328.683,136.29z"/>
	<path style="fill:#2B9ED8;" d="M391.508,171.413c-0.159,0-0.31,0.021-0.467,0.024v43.484c0.157,0.003,0.31,0.024,0.467,0.024
		c12.021,0,21.766-9.745,21.766-21.766C413.274,181.158,403.528,171.413,391.508,171.413z"/>
</g>
<circle style="fill:#FC6F58;" cx="328.68" cy="263.913" r="33.639"/>
<path style="fill:#F1543F;" d="M230.74,214.943c-0.202,0-0.396,0.022-0.596,0.029v32.589c0.2,0.007,0.395,0.029,0.596,0.029
	c9.016,0,16.324-7.309,16.324-16.324S239.754,214.943,230.74,214.943z"/>
<path style="fill:#FC6F58;" d="M295.046,263.916c0,18.484,14.91,33.471,33.358,33.623v-67.248
	C309.957,230.445,295.046,245.432,295.046,263.916z"/>
<path style="fill:#F1543F;" d="M328.683,230.279c-0.095,0-0.184,0.014-0.279,0.014v67.248c0.095,0,0.184,0.014,0.279,0.014
	c18.579,0,33.639-15.06,33.639-33.639C362.322,245.339,347.262,230.279,328.683,230.279z"/>
<g>
	<rect x="107.744" y="113.778" style="fill:#324A5E;" width="12.067" height="256"/>
	<rect x="86.919" y="338.316" style="fill:#324A5E;" width="339.747" height="12.067"/>
</g>
<g>
</g>
<g>
</g>
<g>
</g>
<g>
</g>
<g>
</g>
<g>
</g>
<g>
</g>
<g>
</g>
<g>
</g>
<g>
</g>
<g>
</g>
<g>
</g>
<g>
</g>
<g>
</g>
<g>
</g>
</svg>
