<?xml version="1.0" encoding="iso-8859-1"?>
<!-- Generator: Adobe Illustrator 19.0.0, SVG Export Plug-In . SVG Version: 6.00 Build 0)  -->
<svg version="1.1" id="Layer_1" xmlns="http://www.w3.org/2000/svg" xmlns:xlink="http://www.w3.org/1999/xlink" x="0px" y="0px"
	 viewBox="0 0 512 512" style="enable-background:new 0 0 512 512;" xml:space="preserve">
<circle style="fill:#324A5E;" cx="256" cy="256" r="256"/>
<path style="fill:#2B3B4E;" d="M495.954,345.367l-40.843-40.844c0,0-7.928,3.972-16.181,8.106l-83.375-83.375l-196.38,24.161
	l51.072,51.072c-49.497,8.859-154.14,27.698-153.359,28.481l178.176,178.176C241.971,511.702,248.949,512,256,512
	C365.949,512,459.697,442.68,495.954,345.367z"/>
<polygon style="fill:#FFD15D;" points="355.556,229.254 156.444,229.254 206.222,180.731 305.778,180.731 "/>
<g>
	<polygon style="fill:#F9B54C;" points="305.778,180.731 256.576,180.731 256.576,229.254 355.556,229.254 	"/>
	<rect x="156.444" y="229.262" style="fill:#F9B54C;" width="199.111" height="28.444"/>
</g>
<rect x="256.569" y="229.262" style="fill:#F4A200;" width="98.987" height="28.444"/>
<polygon style="fill:#FFD15D;" points="256,304.523 56.889,304.523 106.667,256 206.222,256 "/>
<g>
	<polygon style="fill:#F9B54C;" points="206.222,256 157.02,256 157.02,304.523 256,304.523 	"/>
	<rect x="56.889" y="304.528" style="fill:#F9B54C;" width="199.111" height="28.444"/>
</g>
<rect x="157.013" y="304.528" style="fill:#F4A200;" width="98.987" height="28.444"/>
<polygon style="fill:#FFD15D;" points="455.111,304.523 256,304.523 305.778,256 405.333,256 "/>
<g>
	<polygon style="fill:#F9B54C;" points="405.333,256 356.131,256 356.131,304.523 455.111,304.523 	"/>
	<rect x="256" y="304.528" style="fill:#F9B54C;" width="199.111" height="28.444"/>
</g>
<rect x="356.124" y="304.528" style="fill:#F4A200;" width="98.987" height="28.444"/>
<g>
</g>
<g>
</g>
<g>
</g>
<g>
</g>
<g>
</g>
<g>
</g>
<g>
</g>
<g>
</g>
<g>
</g>
<g>
</g>
<g>
</g>
<g>
</g>
<g>
</g>
<g>
</g>
<g>
</g>
</svg>
