<?xml version="1.0" encoding="iso-8859-1"?>
<!-- Generator: Adobe Illustrator 19.0.0, SVG Export Plug-In . SVG Version: 6.00 Build 0)  -->
<svg version="1.1" id="Layer_1" xmlns="http://www.w3.org/2000/svg" xmlns:xlink="http://www.w3.org/1999/xlink" x="0px" y="0px"
	 viewBox="0 0 512 512" style="enable-background:new 0 0 512 512;" xml:space="preserve">
<circle style="fill:#E6F3FF;" cx="256" cy="256" r="256"/>
<path style="fill:#CFDBE6;" d="M271.382,511.522c60.297-3.608,119.563-28.431,165.636-74.502
	c44.177-44.177,68.818-100.485,73.952-158.199L295.076,62.923l-35.052,33.904l-45.396,48.269l51.181,51.181l-77.412,20.663
	l59.625,60.387l-13.571,18.323l-83.609,16.462l73.428,73.428l-20.849,58.02L271.382,511.522z"/>
<rect x="249.622" y="101.797" style="fill:#00A49A;" width="12.747" height="210.316"/>
<rect x="255.431" y="101.797" style="fill:#008E80;" width="6.947" height="210.316"/>
<circle style="fill:#FFD15D;" cx="254.293" cy="103.503" r="45.409"/>
<g>
	<path style="fill:#F9B54C;" d="M299.698,103.507c0-24.697-19.72-44.775-44.272-45.38v90.76
		C279.978,148.282,299.698,128.203,299.698,103.507z"/>
	<path style="fill:#F9B54C;" d="M254.288,160.983c-31.692,0-57.477-25.784-57.477-57.477s25.784-57.477,57.477-57.477
		s57.477,25.784,57.477,57.477S285.982,160.983,254.288,160.983z M254.288,70.165c-18.385,0-33.342,14.957-33.342,33.342
		s14.957,33.342,33.342,33.342s33.342-14.957,33.342-33.342C287.632,85.121,272.674,70.165,254.288,70.165z"/>
</g>
<path style="fill:#F4A200;" d="M311.767,103.507c0-31.311-25.172-56.837-56.341-57.447v24.164
	c17.856,0.607,32.206,15.282,32.206,33.283s-14.348,32.678-32.206,33.285v24.164C286.594,160.344,311.767,134.818,311.767,103.507z"
	/>
<polygon style="fill:#F9B54C;" points="308.579,443.559 203.421,443.559 160.401,304.942 351.599,304.942 "/>
<g>
	<polygon style="fill:#F4A200;" points="351.599,304.942 255.426,304.942 255.426,443.559 308.579,443.559 	"/>
	<rect x="150.842" y="259.534" style="fill:#F4A200;" width="210.316" height="52.579"/>
</g>
<rect x="255.431" y="259.534" style="fill:#D88C05;" width="105.727" height="52.579"/>
<path style="fill:#2C9984;" d="M250.821,233.243h-22.969c-30.872,0-55.899-25.026-55.899-55.899v-22.969h22.969
	c30.872,0,55.899,25.026,55.899,55.899V233.243z"/>
<path style="fill:#268472;" d="M261.577,206.953V191.64c0-20.582,16.684-37.266,37.266-37.266h15.313v15.313
	c0,20.582-16.684,37.266-37.266,37.266L261.577,206.953z"/>
<g>
</g>
<g>
</g>
<g>
</g>
<g>
</g>
<g>
</g>
<g>
</g>
<g>
</g>
<g>
</g>
<g>
</g>
<g>
</g>
<g>
</g>
<g>
</g>
<g>
</g>
<g>
</g>
<g>
</g>
</svg>
