<?xml version="1.0" encoding="iso-8859-1"?>
<!-- Generator: Adobe Illustrator 19.0.0, SVG Export Plug-In . SVG Version: 6.00 Build 0)  -->
<svg version="1.1" id="Layer_1" xmlns="http://www.w3.org/2000/svg" xmlns:xlink="http://www.w3.org/1999/xlink" x="0px" y="0px"
	 viewBox="0 0 512 512" style="enable-background:new 0 0 512 512;" xml:space="preserve">
<circle style="fill:#FFD15D;" cx="256" cy="256" r="256"/>
<path style="fill:#F9B54C;" d="M511.164,276.711L394.418,160.004l-28.841,17.667l-56.958-57.928l-106.634,4.665v42.524
	l-84.471,184.996l160.254,159.142C402.137,500.595,501.195,401.224,511.164,276.711z"/>
<path style="fill:#935635;" d="M295.579,180.579h-79.155c-10.021,0-18.173-8.152-18.173-18.173v-30.024
	c0-10.021,8.152-18.173,18.173-18.173h79.155c10.021,0,18.173,8.152,18.173,18.173v30.024
	C313.753,172.427,305.598,180.579,295.579,180.579z M216.424,131.448c-0.515,0-0.934,0.419-0.934,0.934v30.024
	c0,0.515,0.419,0.934,0.934,0.934h79.155c0.515,0,0.934-0.419,0.934-0.934v-30.024c0-0.515-0.419-0.934-0.934-0.934H216.424z"/>
<path style="fill:#804000;" d="M295.579,114.209h-40.151v17.239h40.151c0.515,0,0.934,0.419,0.934,0.934v30.024
	c0,0.515-0.419,0.934-0.934,0.934h-40.151v17.239h40.151c10.021,0,18.173-8.152,18.173-18.173v-30.024
	C313.753,122.361,305.598,114.209,295.579,114.209z"/>
<path style="fill:#935635;" d="M385.653,156.444H255.426H126.348c-6.942,0-12.571,5.629-12.571,12.571v173.971
	c0,6.942,5.629,12.571,12.571,12.571h129.077h130.227c6.942,0,12.571-5.629,12.571-12.571V169.015
	C398.224,162.073,392.595,156.444,385.653,156.444z"/>
<g>
	<path style="fill:#804000;" d="M385.653,156.444H255.426v199.111h130.227c6.942,0,12.571-5.629,12.571-12.571v-173.97
		C398.224,162.073,392.595,156.444,385.653,156.444z"/>
	<path style="fill:#804000;" d="M398.224,169.015c0-6.942-5.629-12.571-12.571-12.571H126.348c-6.942,0-12.571,5.629-12.571,12.571
		v85.261h284.444v-85.261H398.224z"/>
</g>
<path style="fill:#663101;" d="M398.224,169.015c0-6.942-5.629-12.571-12.571-12.571H255.426v97.832h142.796v-85.261H398.224z"/>
<rect x="237.899" y="237.899" style="fill:#FFD300;" width="36.202" height="36.202"/>
<rect x="255.431" y="237.899" style="fill:#F4A200;" width="18.675" height="36.202"/>
<g>
</g>
<g>
</g>
<g>
</g>
<g>
</g>
<g>
</g>
<g>
</g>
<g>
</g>
<g>
</g>
<g>
</g>
<g>
</g>
<g>
</g>
<g>
</g>
<g>
</g>
<g>
</g>
<g>
</g>
</svg>
