<?xml version="1.0" encoding="iso-8859-1"?>
<!-- Generator: Adobe Illustrator 19.0.0, SVG Export Plug-In . SVG Version: 6.00 Build 0)  -->
<svg version="1.1" id="Layer_1" xmlns="http://www.w3.org/2000/svg" xmlns:xlink="http://www.w3.org/1999/xlink" x="0px" y="0px"
	 viewBox="0 0 512 512" style="enable-background:new 0 0 512 512;" xml:space="preserve">
<circle style="fill:#E6F3FF;" cx="256" cy="256" r="256"/>
<path style="fill:#CFDBE6;" d="M510.286,285.603l-128.44-128.44c-1.724,0-151.992-22.123-151.992-22.123L104.01,260.886
	l41.086,111.192l138.445,138.445C402.235,497.824,496.649,404.013,510.286,285.603z"/>
<path style="fill:#FC6F58;" d="M256,95.677c-88.545,0-160.323,71.778-160.323,160.323c0,88.543,71.78,160.323,160.323,160.323
	S416.323,344.543,416.323,256C416.323,167.455,344.545,95.677,256,95.677z M256,343.449c-48.297,0-87.449-39.153-87.449-87.449
	c0-48.297,39.152-87.449,87.449-87.449s87.449,39.152,87.449,87.449S304.297,343.449,256,343.449z"/>
<path style="fill:#F1543F;" d="M256,95.677c-0.191,0-0.381,0.007-0.574,0.007v72.882c0.191-0.002,0.381-0.014,0.574-0.014
	c48.297,0,87.449,39.152,87.449,87.449S304.297,343.449,256,343.449c-0.193,0-0.381-0.014-0.574-0.014v72.882
	c0.191,0,0.381,0.007,0.574,0.007c88.543,0,160.323-71.78,160.323-160.323C416.323,167.455,344.545,95.677,256,95.677z"/>
<path style="fill:#90DFAA;" d="M253.702,168.608V95.706c-60.142,0.846-112.278,34.802-138.992,84.463l62.983,36.921
	C191.697,188.983,220.37,169.47,253.702,168.608z"/>
<path style="fill:#FFD15D;" d="M416.323,256c0-88.545-71.78-160.323-160.323-160.323c-0.767,0-1.531,0.019-2.298,0.029v72.902
	c0.765-0.019,1.527-0.059,2.298-0.059c48.297,0,87.449,39.152,87.449,87.449c0,30.289-15.403,56.977-38.8,72.671l47.18,55.87
	C390.977,355.309,416.323,308.615,416.323,256z"/>
<path style="fill:#2C9984;" d="M256,179.286c-42.368,0-76.714,34.345-76.714,76.714s34.345,76.714,76.714,76.714
	s76.714-34.345,76.714-76.714S298.368,179.286,256,179.286z M256,297.844c-23.111,0-41.844-18.734-41.844-41.844
	c0-23.111,18.734-41.844,41.844-41.844s41.844,18.734,41.844,41.844C297.844,279.109,279.111,297.844,256,297.844z"/>
<path style="fill:#21826F;" d="M256,179.286c-0.193,0-0.381,0.014-0.574,0.014v34.869c0.191-0.002,0.381-0.014,0.574-0.014
	c23.111,0,41.844,18.734,41.844,41.844c0,23.109-18.734,41.844-41.844,41.844c-0.193,0-0.381-0.012-0.574-0.014V332.7
	c0.191,0.002,0.381,0.014,0.574,0.014c42.368,0,76.714-34.345,76.714-76.714S298.368,179.286,256,179.286z"/>
<g>
</g>
<g>
</g>
<g>
</g>
<g>
</g>
<g>
</g>
<g>
</g>
<g>
</g>
<g>
</g>
<g>
</g>
<g>
</g>
<g>
</g>
<g>
</g>
<g>
</g>
<g>
</g>
<g>
</g>
</svg>
