<?xml version="1.0" encoding="iso-8859-1"?>
<!-- Generator: Adobe Illustrator 19.0.0, SVG Export Plug-In . SVG Version: 6.00 Build 0)  -->
<svg version="1.1" id="Layer_1" xmlns="http://www.w3.org/2000/svg" xmlns:xlink="http://www.w3.org/1999/xlink" x="0px" y="0px"
	 viewBox="0 0 512 512" style="enable-background:new 0 0 512 512;" xml:space="preserve">
<circle style="fill:#FFD15D;" cx="256" cy="256" r="256"/>
<path style="fill:#F9B54C;" d="M280.209,510.854c111.659-10.476,202.455-92.656,225.887-200.028l-77.919-77.919l-35.047,26.331
	L283.91,148.525l-35.38,29.899l-16.472,14.82l67.615,67.927H165.212l-28.265-28.265l-35.523,28.265l-31.822,39.076L280.209,510.854z
	"/>
<polygon style="fill:#C1321F;" points="420.419,258.819 264.106,258.819 264.106,240.664 248.591,240.664 248.591,258.819 
	92.277,258.819 92.277,274.334 248.591,274.334 248.591,389.818 264.106,389.818 264.106,274.334 420.419,274.334 "/>
<polygon style="fill:#A82116;" points="264.106,258.819 264.106,240.664 255.426,240.664 255.426,389.818 264.106,389.818 
	264.106,274.334 420.419,274.334 420.419,258.819 "/>
<rect x="360.831" y="232.9" style="fill:#F1543F;" width="67.336" height="67.336"/>
<circle style="fill:#31BAFD;" cx="256.345" cy="168.994" r="34.326"/>
<path style="fill:#2B9ED8;" d="M256.348,134.663c-0.31,0-0.612,0.038-0.921,0.047v68.56c0.309,0.009,0.61,0.047,0.921,0.047
	c18.958,0,34.326-15.369,34.326-34.326S275.306,134.663,256.348,134.663z"/>
<path style="fill:#324A5E;" d="M180.414,285.191c0-41.937,33.997-75.933,75.933-75.933s75.933,33.997,75.933,75.933H180.414z"/>
<path style="fill:#2B3B4E;" d="M256.348,209.258c-0.309,0-0.612,0.019-0.921,0.022v75.91h76.855
	C332.281,243.255,298.284,209.258,256.348,209.258z"/>
<g>
	<rect x="69.594" y="232.9" style="fill:#FC6F58;" width="67.336" height="67.336"/>
	<rect x="222.677" y="352.228" style="fill:#FC6F58;" width="67.336" height="67.336"/>
</g>
<rect x="255.431" y="352.228" style="fill:#F1543F;" width="34.599" height="67.336"/>
<g>
</g>
<g>
</g>
<g>
</g>
<g>
</g>
<g>
</g>
<g>
</g>
<g>
</g>
<g>
</g>
<g>
</g>
<g>
</g>
<g>
</g>
<g>
</g>
<g>
</g>
<g>
</g>
<g>
</g>
</svg>
