<?xml version="1.0" encoding="iso-8859-1"?>
<!-- Generator: Adobe Illustrator 19.0.0, SVG Export Plug-In . SVG Version: 6.00 Build 0)  -->
<svg version="1.1" id="Layer_1" xmlns="http://www.w3.org/2000/svg" xmlns:xlink="http://www.w3.org/1999/xlink" x="0px" y="0px"
	 viewBox="0 0 512 512" style="enable-background:new 0 0 512 512;" xml:space="preserve">
<circle style="fill:#F4E3C3;" cx="256" cy="256" r="256"/>
<path style="fill:#FED8B2;" d="M510.2,286.36L286.599,62.759c0-0.274,0.069,23.271,0.179,60.647l-61.378,0.552l42.399,42.399H147.97
	l-36.778,95.978l47.087,47.087c-8.494,19.313-45.056,102.183-47.087,102.183l95.665,95.665C222.763,510.362,239.188,512,256,512
	C387.112,512,495.183,413.432,510.2,286.36z"/>
<g>
	<path style="fill:#324A5E;" d="M350.02,304.721H161.98c-15.408,0-27.946,12.536-27.946,27.946v25.495h15.515v-25.495
		c0-6.854,5.575-12.431,12.431-12.431h86.263v65.814h15.515v-65.814h86.263c6.856,0,12.431,5.577,12.431,12.431v25.495h15.515
		v-25.495C377.966,317.257,365.43,304.721,350.02,304.721z"/>
	<path style="fill:#324A5E;" d="M350.02,155.453h-86.263V96.809h-15.515v58.644H161.98c-15.408,0-27.946,12.536-27.946,27.946
		v25.495h15.515v-25.495c0-6.854,5.575-12.431,12.431-12.431h33.673v123.849h15.515V170.968h37.074v37.926h15.515v-37.926h37.074
		v123.849h15.515V170.968h33.673c6.856,0,12.431,5.577,12.431,12.431v25.495h15.515v-25.495
		C377.966,167.989,365.43,155.453,350.02,155.453z"/>
</g>
<g>
	<path style="fill:#2B3B4E;" d="M350.02,304.721h-95.168v81.329h8.906v-65.814h86.263c6.856,0,12.431,5.577,12.431,12.431v25.495
		h15.515v-25.495C377.966,317.257,365.43,304.721,350.02,304.721z"/>
	<path style="fill:#2B3B4E;" d="M350.02,155.453h-86.263V96.809h-8.906v112.085h8.906v-37.926h37.074v123.849h15.515V170.968h33.673
		c6.856,0,12.431,5.577,12.431,12.431v25.495h15.515v-25.495C377.966,167.989,365.43,155.453,350.02,155.453z"/>
</g>
<rect x="111.192" y="350.401" style="fill:#FC6F58;" width="61.199" height="61.199"/>
<rect x="339.609" y="350.401" style="fill:#F1543F;" width="61.199" height="61.199"/>
<g>
	<rect x="111.192" y="201.128" style="fill:#FC6F58;" width="61.199" height="61.199"/>
	<rect x="225.401" y="201.128" style="fill:#FC6F58;" width="61.199" height="61.199"/>
	<rect x="225.401" y="350.401" style="fill:#FC6F58;" width="61.199" height="61.199"/>
	<rect x="225.401" y="62.759" style="fill:#FC6F58;" width="61.199" height="61.199"/>
</g>
<g>
	<rect x="254.845" y="201.128" style="fill:#F1543F;" width="31.747" height="61.199"/>
	<rect x="254.845" y="350.401" style="fill:#F1543F;" width="31.747" height="61.199"/>
	<rect x="254.845" y="62.759" style="fill:#F1543F;" width="31.747" height="61.199"/>
	<rect x="339.609" y="201.128" style="fill:#F1543F;" width="61.199" height="61.199"/>
	<rect x="281.445" y="273.118" style="fill:#F1543F;" width="61.199" height="61.199"/>
</g>
<rect x="169.356" y="273.118" style="fill:#FC6F58;" width="61.199" height="61.199"/>
<g>
</g>
<g>
</g>
<g>
</g>
<g>
</g>
<g>
</g>
<g>
</g>
<g>
</g>
<g>
</g>
<g>
</g>
<g>
</g>
<g>
</g>
<g>
</g>
<g>
</g>
<g>
</g>
<g>
</g>
</svg>
